# xmcd CD database file
#
# Track frame offsets:
#	150
#	17605
#	38240
#	57357
#	73797
#	91467
#	111082
#	130647
#	150887
#	169090
#	191345
#	208872
#
# Disc length: 3042 seconds
#
# Revision: 3
# Processed by: cddbd v1.5.2PL0 Copyright (c) Steve Scherf et al.
# Submitted via: CDex 1.70beta2
#
DISCID=990be00c
DTITLE=Sparkle - Told You So
DYEAR=2000
DGENRE=R&B
TTITLE0=Don't Know Why
TTITLE1=The Ghetto
TTITLE2=It's A Fact
TTITLE3=Lovin A Man
TTITLE4=Into My Life
TTITLE5=When A Woman's Heart Is Broken
TTITLE6=Good Life
TTITLE7=All I Want
TTITLE8=Somebody Else
TTITLE9=Everything
TTITLE10=Games
TTITLE11=Never Can Say Goodbye
EXTD=YEAR: 2000
EXTT0=
EXTT1=
EXTT2=
EXTT3=
EXTT4=
EXTT5=
EXTT6=
EXTT7=
EXTT8=
EXTT9=
EXTT10=
EXTT11=
PLAYORDER=
